<?xml version="1.0" standalone="no"?>
<!DOCTYPE svg PUBLIC "-//W3C//DTD SVG 20010904//EN"
 "http://www.w3.org/TR/2001/REC-SVG-20010904/DTD/svg10.dtd">
<svg version="1.0" xmlns="http://www.w3.org/2000/svg"
 width="1024.000000pt" height="1024.000000pt" viewBox="0 0 1024.000000 1024.000000"
 preserveAspectRatio="xMidYMid meet">
<metadata>
Created by potrace 1.14, written by Peter Selinger 2001-2017
</metadata>
<g transform="translate(0.000000,1024.000000) scale(0.100000,-0.100000)"
fill="#000000" stroke="none">
<path d="M4838 9915 c-2 -1 -53 -6 -113 -9 -61 -3 -119 -8 -130 -10 -11 -2
-51 -7 -90 -11 -38 -4 -77 -8 -85 -10 -8 -1 -36 -5 -61 -9 -25 -4 -57 -9 -70
-11 -13 -2 -55 -9 -94 -15 -189 -29 -628 -154 -825 -235 -509 -209 -926 -478
-1260 -815 -230 -232 -475 -618 -635 -1000 -15 -36 -33 -78 -40 -95 -72 -166
-163 -470 -200 -672 -3 -16 -7 -37 -9 -48 -2 -11 -7 -47 -11 -80 -4 -33 -9
-69 -10 -80 -43 -313 -49 -670 -20 -1125 7 -110 46 -449 60 -520 3 -14 7 -43
10 -65 3 -22 7 -51 9 -65 45 -250 48 -287 43 -440 -3 -85 -7 -164 -10 -175 -5
-25 -15 -77 -23 -130 -3 -22 -19 -101 -34 -175 -16 -74 -31 -148 -33 -165 -3
-16 -13 -73 -22 -125 -21 -115 -24 -340 -6 -425 41 -193 133 -357 282 -502
162 -158 359 -268 799 -448 309 -127 351 -147 399 -190 49 -44 86 -120 96
-195 8 -55 8 -199 0 -255 -2 -16 -7 -59 -11 -95 -3 -36 -8 -74 -11 -85 -10
-43 -12 -292 -3 -338 25 -127 155 -286 297 -363 21 -12 72 -40 113 -63 41 -23
94 -50 117 -61 121 -55 456 -87 485 -47 12 16 13 14 14 -12 1 -39 57 -131 114
-187 69 -68 223 -153 365 -202 187 -64 400 -49 637 44 113 44 241 64 330 52
35 -4 108 -26 163 -48 146 -58 244 -81 366 -85 250 -8 455 82 653 285 117 120
136 128 312 134 375 14 650 173 794 460 59 118 67 176 65 432 -2 287 15 375
103 514 90 143 208 231 517 388 536 272 785 509 876 837 33 118 33 326 0 550
-6 39 -13 81 -16 95 -5 24 -8 38 -22 120 -3 19 -7 44 -10 55 -2 11 -10 58 -19
105 -8 47 -17 96 -19 110 -3 14 -7 43 -10 65 -30 236 -28 270 30 618 3 15 7
39 10 55 2 15 7 47 10 72 3 25 10 80 16 124 12 94 16 128 24 226 3 41 8 82 10
90 8 29 18 317 19 510 0 176 -9 427 -19 505 -2 17 -7 53 -10 80 -11 98 -31
232 -50 330 -7 35 -37 155 -58 235 -100 369 -326 844 -561 1178 -437 622
-1296 1125 -2250 1316 -176 36 -268 52 -346 61 -25 3 -61 7 -80 10 -38 4 -137
15 -210 22 -53 5 -647 12 -652 8z"/>
</g>
</svg>
